<svg width="74" height="11" viewBox="0 0 74 11" fill="none" xmlns="http://www.w3.org/2000/svg">
<path d="M1.956 5.344H0.276V4.672H1.956V2.8H2.616V4.672H4.308V5.344H2.616V7.24H1.956V5.344ZM7.89375 0.987999H4.95375V0.279999H8.79375V0.711999L6.86175 10H5.99775L7.89375 0.987999ZM15.1711 0.987999H12.2311V0.279999H16.0711V0.711999L14.1391 10H13.2751L15.1711 0.987999ZM17.2872 9.352L19.9032 5.344C19.9352 5.296 19.9632 5.252 19.9872 5.212C20.0192 5.172 20.0432 5.14 20.0592 5.116C20.3872 4.604 20.6272 4.172 20.7792 3.82C20.9392 3.468 21.0192 3.056 21.0192 2.584C21.0192 2.056 20.9112 1.648 20.6952 1.36C20.4792 1.064 20.1552 0.916 19.7232 0.916C19.1632 0.916 18.7752 1.096 18.5592 1.456C18.3432 1.808 18.2352 2.304 18.2352 2.944V3.16H17.3592V2.92C17.3592 2.008 17.5432 1.324 17.9112 0.868C18.2872 0.412 18.8792 0.184 19.6872 0.184C20.4072 0.184 20.9552 0.4 21.3312 0.831999C21.7072 1.256 21.8952 1.864 21.8952 2.656C21.8952 3.024 21.8432 3.372 21.7392 3.7C21.6352 4.028 21.5072 4.324 21.3552 4.588C21.2112 4.844 21.0072 5.176 20.7432 5.584L18.3192 9.256H21.6912V10H17.2872V9.352ZM25.8234 0.987999H22.8834V0.279999H26.7234V0.711999L24.7914 10H23.9274L25.8234 0.987999ZM32.6568 10.12C31.9208 10.12 31.3768 9.912 31.0248 9.496C30.6728 9.08 30.4968 8.5 30.4968 7.756V7.516H31.3488V7.72C31.3568 8.264 31.4608 8.68 31.6608 8.968C31.8608 9.256 32.1928 9.4 32.6568 9.4C33.1288 9.4 33.4808 9.24 33.7128 8.92C33.9528 8.6 34.0728 8.08 34.0728 7.36C34.0728 6.016 33.5888 5.328 32.6208 5.296H32.3808V4.456H32.6208C33.1408 4.456 33.5128 4.312 33.7368 4.024C33.9608 3.736 34.0728 3.264 34.0728 2.608C34.0728 2.064 33.9728 1.644 33.7728 1.348C33.5728 1.044 33.2328 0.891999 32.7528 0.891999C32.2648 0.891999 31.9088 1.028 31.6848 1.3C31.4688 1.572 31.3568 2 31.3488 2.584V2.752H30.4968V2.524C30.4968 0.964 31.2448 0.184 32.7408 0.184C33.4848 0.184 34.0408 0.404 34.4088 0.844C34.7848 1.276 34.9728 1.864 34.9728 2.608C34.9728 3.264 34.8448 3.784 34.5888 4.168C34.3408 4.544 34.0048 4.784 33.5808 4.888C33.9808 4.992 34.3128 5.248 34.5768 5.656C34.8408 6.064 34.9728 6.628 34.9728 7.348C34.9728 8.212 34.7848 8.892 34.4088 9.388C34.0328 9.876 33.4488 10.12 32.6568 10.12ZM36.1778 9.352L38.7938 5.344C38.8258 5.296 38.8538 5.252 38.8778 5.212C38.9098 5.172 38.9338 5.14 38.9498 5.116C39.2778 4.604 39.5178 4.172 39.6698 3.82C39.8298 3.468 39.9098 3.056 39.9098 2.584C39.9098 2.056 39.8018 1.648 39.5858 1.36C39.3698 1.064 39.0458 0.916 38.6138 0.916C38.0538 0.916 37.6658 1.096 37.4498 1.456C37.2338 1.808 37.1258 2.304 37.1258 2.944V3.16H36.2498V2.92C36.2498 2.008 36.4338 1.324 36.8018 0.868C37.1778 0.412 37.7698 0.184 38.5778 0.184C39.2978 0.184 39.8458 0.4 40.2218 0.831999C40.5978 1.256 40.7858 1.864 40.7858 2.656C40.7858 3.024 40.7338 3.372 40.6298 3.7C40.5258 4.028 40.3978 4.324 40.2458 4.588C40.1018 4.844 39.8978 5.176 39.6338 5.584L37.2098 9.256H40.5818V10H36.1778V9.352ZM44.7141 0.987999H41.7741V0.279999H45.6141V0.711999L43.6821 10H42.8181L44.7141 0.987999ZM49.2794 9.352L51.8954 5.344C51.9274 5.296 51.9554 5.252 51.9794 5.212C52.0114 5.172 52.0354 5.14 52.0514 5.116C52.3794 4.604 52.6194 4.172 52.7714 3.82C52.9314 3.468 53.0114 3.056 53.0114 2.584C53.0114 2.056 52.9034 1.648 52.6874 1.36C52.4714 1.064 52.1474 0.916 51.7154 0.916C51.1554 0.916 50.7674 1.096 50.5514 1.456C50.3354 1.808 50.2274 2.304 50.2274 2.944V3.16H49.3514V2.92C49.3514 2.008 49.5354 1.324 49.9034 0.868C50.2794 0.412 50.8714 0.184 51.6794 0.184C52.3994 0.184 52.9474 0.4 53.3234 0.831999C53.6994 1.256 53.8874 1.864 53.8874 2.656C53.8874 3.024 53.8354 3.372 53.7314 3.7C53.6274 4.028 53.4994 4.324 53.3474 4.588C53.2034 4.844 52.9994 5.176 52.7354 5.584L50.3114 9.256H53.6834V10H49.2794V9.352ZM57.4076 10.108C56.6476 10.108 56.0956 9.892 55.7516 9.46C55.4156 9.02 55.2476 8.364 55.2476 7.492H56.1236C56.1236 8.124 56.2196 8.6 56.4116 8.92C56.6116 9.24 56.9556 9.4 57.4436 9.4C57.9716 9.4 58.3276 9.208 58.5116 8.824C58.6956 8.432 58.7876 7.8 58.7876 6.928C58.7876 6.328 58.7436 5.856 58.6556 5.512C58.5756 5.16 58.4356 4.908 58.2356 4.756C58.0436 4.596 57.7836 4.516 57.4556 4.516C56.9356 4.516 56.5156 4.784 56.1956 5.32H55.4636V0.279999H59.2436L59.2316 1.108H56.2436L56.1956 4.48C56.5396 4.048 57.0356 3.832 57.6836 3.832C58.3796 3.832 58.8836 4.088 59.1956 4.6C59.5076 5.104 59.6636 5.844 59.6636 6.82C59.6636 7.908 59.4876 8.728 59.1356 9.28C58.7836 9.832 58.2076 10.108 57.4076 10.108ZM63.2716 9.352L65.8876 5.344C65.9196 5.296 65.9476 5.252 65.9716 5.212C66.0036 5.172 66.0276 5.14 66.0436 5.116C66.3716 4.604 66.6116 4.172 66.7636 3.82C66.9236 3.468 67.0036 3.056 67.0036 2.584C67.0036 2.056 66.8956 1.648 66.6796 1.36C66.4636 1.064 66.1396 0.916 65.7076 0.916C65.1476 0.916 64.7596 1.096 64.5436 1.456C64.3276 1.808 64.2196 2.304 64.2196 2.944V3.16H63.3436V2.92C63.3436 2.008 63.5276 1.324 63.8956 0.868C64.2716 0.412 64.8636 0.184 65.6716 0.184C66.3916 0.184 66.9396 0.4 67.3156 0.831999C67.6916 1.256 67.8796 1.864 67.8796 2.656C67.8796 3.024 67.8276 3.372 67.7236 3.7C67.6196 4.028 67.4916 4.324 67.3396 4.588C67.1956 4.844 66.9916 5.176 66.7276 5.584L64.3036 9.256H67.6756V10H63.2716V9.352ZM69.0958 9.352L71.7118 5.344C71.7438 5.296 71.7718 5.252 71.7958 5.212C71.8278 5.172 71.8518 5.14 71.8678 5.116C72.1958 4.604 72.4358 4.172 72.5878 3.82C72.7478 3.468 72.8278 3.056 72.8278 2.584C72.8278 2.056 72.7198 1.648 72.5038 1.36C72.2878 1.064 71.9638 0.916 71.5318 0.916C70.9718 0.916 70.5838 1.096 70.3678 1.456C70.1518 1.808 70.0438 2.304 70.0438 2.944V3.16H69.1678V2.92C69.1678 2.008 69.3518 1.324 69.7198 0.868C70.0958 0.412 70.6878 0.184 71.4958 0.184C72.2158 0.184 72.7638 0.4 73.1398 0.831999C73.5158 1.256 73.7038 1.864 73.7038 2.656C73.7038 3.024 73.6518 3.372 73.5478 3.7C73.4438 4.028 73.3158 4.324 73.1638 4.588C73.0198 4.844 72.8158 5.176 72.5518 5.584L70.1278 9.256H73.4998V10H69.0958V9.352Z" fill="#303030"/>
</svg>
